<?xml version="1.0" encoding="UTF-8"?>
<svg width="200" height="200" viewBox="280 50 120 120" xmlns="http://www.w3.org/2000/svg">
  <defs>
    <linearGradient id="navyGrad" x1="0" y1="0" x2="1" y2="1">
      <stop offset="0%" stop-color="#0D2B55"/>
      <stop offset="100%" stop-color="#122F5E"/>
    </linearGradient>
  </defs>
  <rect x="280" y="50" width="120" height="120" rx="28" fill="url(#navyGrad)"/>
  <polygon points="340,72 298,104 382,104" fill="none" stroke="#FFFFFF" stroke-width="2.4" stroke-linejoin="round"/>
  <rect x="308" y="104" width="64" height="44" rx="4" fill="none" stroke="#FFFFFF" stroke-width="2.4"/>
  <rect x="330" y="120" width="20" height="28" rx="3" fill="#2A9D5C"/>
  <circle cx="298" cy="104" r="4" fill="#2A9D5C"/>
  <circle cx="340" cy="72"  r="4" fill="#2A9D5C"/>
  <circle cx="382" cy="104" r="4" fill="#2A9D5C"/>
  <circle cx="340" cy="104" r="3" fill="#A0C4E0" opacity="0.8"/>
  <rect x="359" y="137" width="30" height="26" rx="6" fill="#1E7E48"/>
  <path d="M374,142 L368,146 L368,154 Q374,158 374,158 Q380,154 380,154 L380,146 Z" fill="#FFFFFF" opacity="0.95"/>
  <path d="M370,151 L373,154 L378,148" fill="none" stroke="#1E7E48" stroke-width="1.5" stroke-linecap="round" stroke-linejoin="round"/>
</svg>
